<svg width="1440" height="1024" viewBox="0 0 1440 1024" fill="none" xmlns="http://www.w3.org/2000/svg">
<g clip-path="url(#clip0_1_2)">
<rect width="1440" height="1024" fill="white"/>
<g filter="url(#filter0_d_1_2)">
<rect width="304" height="1024" fill="#FFFBD9"/>
<rect x="1" y="1" width="302" height="1022" stroke="black" stroke-width="2"/>
<path d="M55.52 90.432C55.52 92.224 55.2 93.8027 54.56 95.168C53.9627 96.5333 52.96 97.6853 51.552 98.624C50.144 99.6053 48.2667 100.331 45.92 100.8C43.616 101.312 40.7573 101.568 37.344 101.568C34.4427 101.568 31.968 101.376 29.92 100.992C27.9147 100.651 26.272 100.139 24.992 99.456C23.7547 98.816 22.8373 98.0053 22.24 97.024C21.6853 96.0853 21.408 94.9973 21.408 93.76C21.408 91.8827 21.9627 90.4107 23.072 89.344C24.1813 88.2773 25.7173 87.616 27.68 87.36V86.656C26.0587 86.3573 24.8427 85.6747 24.032 84.608C23.2213 83.4987 22.816 82.2187 22.816 80.768C22.816 79.872 22.9867 79.104 23.328 78.464C23.712 77.7813 24.1813 77.2053 24.736 76.736C25.3333 76.224 26.016 75.8187 26.784 75.52C27.552 75.2213 28.32 74.9867 29.088 74.816V74.56C27.04 73.6213 25.5253 72.3413 24.544 70.72C23.5627 69.056 23.072 67.136 23.072 64.96C23.072 61.5467 24.2453 58.816 26.592 56.768C28.9813 54.6773 32.608 53.632 37.472 53.632C39.6907 53.632 41.5893 53.8453 43.168 54.272V52.992C43.168 51.2 43.5947 49.92 44.448 49.152C45.344 48.3413 46.6027 47.936 48.224 47.936H53.536V54.976H46.112V55.36C48.0747 56.2987 49.5253 57.6 50.464 59.264C51.4027 60.8853 51.872 62.784 51.872 64.96C51.872 68.3307 50.6773 71.04 48.288 73.088C45.9413 75.0933 42.336 76.096 37.472 76.096C35.296 76.096 33.312 75.8613 31.52 75.392C30.5387 76.032 30.048 76.928 30.048 78.08C30.048 78.8907 30.3467 79.5307 30.944 80C31.584 80.4267 32.6293 80.64 34.08 80.64H43.808C47.904 80.64 50.8693 81.4933 52.704 83.2C54.5813 84.9067 55.52 87.3173 55.52 90.432ZM46.624 91.712C46.624 90.7307 46.24 89.984 45.472 89.472C44.704 88.96 43.36 88.704 41.44 88.704H29.92C29.4933 89.1307 29.1733 89.6 28.96 90.112C28.7893 90.6667 28.704 91.2 28.704 91.712C28.704 92.9493 29.2373 93.8453 30.304 94.4C31.3707 94.9973 33.184 95.296 35.744 95.296H39.584C42.144 95.296 43.9573 94.9973 45.024 94.4C46.0907 93.8453 46.624 92.9493 46.624 91.712ZM37.472 69.888C39.3493 69.888 40.736 69.504 41.632 68.736C42.5707 67.9253 43.04 66.7733 43.04 65.28V64.512C43.04 63.0187 42.5707 61.888 41.632 61.12C40.736 60.3093 39.3493 59.904 37.472 59.904C35.5947 59.904 34.1867 60.3093 33.248 61.12C32.352 61.888 31.904 63.0187 31.904 64.512V65.28C31.904 66.7733 32.352 67.9253 33.248 68.736C34.1867 69.504 35.5947 69.888 37.472 69.888ZM79.3185 82.368H78.9985C78.6998 83.2213 78.2945 84.032 77.7825 84.8C77.3132 85.568 76.6945 86.2507 75.9265 86.848C75.1585 87.4453 74.2412 87.9147 73.1745 88.256C72.1505 88.5973 70.9558 88.768 69.5905 88.768C66.1345 88.768 63.5105 87.6373 61.7185 85.376C59.9692 83.072 59.0945 79.7867 59.0945 75.52V54.4H68.5665V74.688C68.5665 76.736 68.9292 78.3147 69.6545 79.424C70.3798 80.5333 71.6172 81.088 73.3665 81.088C74.0918 81.088 74.8172 80.9813 75.5425 80.768C76.2678 80.5547 76.9078 80.256 77.4625 79.872C78.0172 79.4453 78.4652 78.9333 78.8065 78.336C79.1478 77.7387 79.3185 77.0347 79.3185 76.224V54.4H88.7905V88H79.3185V82.368ZM95.6835 88V80.512L112.388 61.76H96.2595V54.4H123.396V61.824L106.628 80.64H123.844V88H95.6835ZM142.505 88C139.219 88 136.723 87.168 135.017 85.504C133.353 83.84 132.521 81.408 132.521 78.208V61.76H127.785V54.4H130.153C131.433 54.4 132.307 54.1013 132.777 53.504C133.246 52.864 133.481 51.968 133.481 50.816V45.312H141.993V54.4H148.649V61.76H141.993V80.64H148.137V88H142.505ZM159.965 50.816C158.045 50.816 156.637 50.3893 155.741 49.536C154.887 48.64 154.461 47.5093 154.461 46.144V44.736C154.461 43.3707 154.887 42.2613 155.741 41.408C156.637 40.512 158.045 40.064 159.965 40.064C161.885 40.064 163.271 40.512 164.125 41.408C165.021 42.2613 165.469 43.3707 165.469 44.736V46.144C165.469 47.5093 165.021 48.64 164.125 49.536C163.271 50.3893 161.885 50.816 159.965 50.816ZM155.229 54.4H164.701V88H155.229V54.4ZM198.373 88C196.666 88 195.237 87.4667 194.085 86.4C192.976 85.3333 192.272 83.904 191.973 82.112H191.589C191.077 84.288 189.946 85.952 188.197 87.104C186.448 88.2133 184.293 88.768 181.733 88.768C178.362 88.768 175.781 87.872 173.989 86.08C172.197 84.288 171.301 81.92 171.301 78.976C171.301 75.4347 172.581 72.8107 175.141 71.104C177.744 69.3547 181.264 68.48 185.701 68.48H191.013V66.368C191.013 64.7467 190.586 63.4667 189.733 62.528C188.88 61.5467 187.45 61.056 185.445 61.056C183.568 61.056 182.074 61.4613 180.965 62.272C179.856 63.0827 178.938 64 178.213 65.024L172.581 60.032C173.946 58.0267 175.653 56.4693 177.701 55.36C179.792 54.208 182.608 53.632 186.149 53.632C190.928 53.632 194.512 54.6773 196.901 56.768C199.29 58.8587 200.485 61.9093 200.485 65.92V80.64H203.621V88H198.373ZM185.253 82.176C186.832 82.176 188.176 81.8347 189.285 81.152C190.437 80.4693 191.013 79.36 191.013 77.824V73.856H186.405C182.693 73.856 180.837 75.1147 180.837 77.632V78.592C180.837 79.8293 181.221 80.7467 181.989 81.344C182.757 81.8987 183.845 82.176 185.253 82.176ZM216.108 88.704C214.188 88.704 212.758 88.2347 211.82 87.296C210.924 86.3147 210.476 85.0773 210.476 83.584V82.304C210.476 80.8107 210.924 79.5947 211.82 78.656C212.758 77.6747 214.188 77.184 216.108 77.184C218.028 77.184 219.436 77.6747 220.332 78.656C221.27 79.5947 221.74 80.8107 221.74 82.304V83.584C221.74 85.0773 221.27 86.3147 220.332 87.296C219.436 88.2347 218.028 88.704 216.108 88.704Z" fill="black"/>
<path d="M32.6179 156.364V160.455H20.7926V156.364H32.6179ZM23.4773 151.659H28.9233V169.966C28.9233 170.469 29 170.861 29.1534 171.142C29.3068 171.415 29.5199 171.607 29.7926 171.717C30.0739 171.828 30.3977 171.884 30.7642 171.884C31.0199 171.884 31.2756 171.862 31.5312 171.82C31.7869 171.768 31.983 171.73 32.1193 171.705L32.9759 175.757C32.7031 175.842 32.3196 175.94 31.8253 176.051C31.331 176.17 30.7301 176.243 30.0227 176.268C28.7102 176.32 27.5597 176.145 26.571 175.744C25.5909 175.344 24.8281 174.722 24.2827 173.878C23.7372 173.034 23.4688 171.969 23.4773 170.682V151.659ZM41.7649 176.371C40.5121 176.371 39.3956 176.153 38.4155 175.719C37.4354 175.276 36.6598 174.624 36.0888 173.763C35.5263 172.893 35.245 171.811 35.245 170.516C35.245 169.425 35.4453 168.509 35.8459 167.767C36.2464 167.026 36.7919 166.429 37.4822 165.977C38.1726 165.526 38.9567 165.185 39.8345 164.955C40.7209 164.724 41.6499 164.562 42.6214 164.469C43.7635 164.349 44.6839 164.239 45.3828 164.136C46.0817 164.026 46.5888 163.864 46.9041 163.651C47.2195 163.437 47.3771 163.122 47.3771 162.705V162.628C47.3771 161.818 47.1214 161.192 46.6101 160.749C46.1072 160.305 45.3913 160.084 44.4624 160.084C43.4822 160.084 42.7024 160.301 42.1229 160.736C41.5433 161.162 41.1598 161.699 40.9723 162.347L35.9354 161.938C36.1911 160.744 36.6939 159.713 37.4439 158.844C38.1939 157.966 39.1612 157.293 40.3459 156.824C41.5391 156.347 42.9197 156.108 44.4879 156.108C45.5788 156.108 46.6229 156.236 47.62 156.491C48.6257 156.747 49.5163 157.143 50.2919 157.68C51.076 158.217 51.6939 158.908 52.1456 159.751C52.5973 160.587 52.8232 161.588 52.8232 162.756V176H47.6584V173.277H47.505C47.1896 173.891 46.7678 174.432 46.2393 174.901C45.7109 175.361 45.076 175.723 44.3345 175.987C43.593 176.243 42.7365 176.371 41.7649 176.371ZM43.3246 172.612C44.1257 172.612 44.8331 172.455 45.4467 172.139C46.0604 171.815 46.5419 171.381 46.8913 170.835C47.2408 170.29 47.4155 169.672 47.4155 168.982V166.898C47.245 167.009 47.0107 167.111 46.7124 167.205C46.4226 167.29 46.0945 167.371 45.728 167.447C45.3615 167.516 44.995 167.58 44.6286 167.639C44.2621 167.69 43.9297 167.737 43.6314 167.78C42.9922 167.874 42.4339 168.023 41.9567 168.227C41.4794 168.432 41.1087 168.709 40.8445 169.058C40.5803 169.399 40.4482 169.825 40.4482 170.337C40.4482 171.078 40.7166 171.645 41.2536 172.037C41.799 172.42 42.4893 172.612 43.3246 172.612ZM65.8949 183.773C64.1307 183.773 62.6179 183.53 61.3565 183.044C60.1037 182.567 59.1065 181.915 58.3651 181.088C57.6236 180.261 57.142 179.332 56.9205 178.301L61.9574 177.624C62.1108 178.016 62.3537 178.382 62.6861 178.723C63.0185 179.064 63.4574 179.337 64.0028 179.541C64.5568 179.754 65.2301 179.861 66.0227 179.861C67.2074 179.861 68.1832 179.571 68.9503 178.991C69.7259 178.42 70.1136 177.462 70.1136 176.115V172.523H69.8835C69.6449 173.068 69.2869 173.584 68.8097 174.07C68.3324 174.555 67.7188 174.952 66.9688 175.259C66.2188 175.565 65.3239 175.719 64.2841 175.719C62.8097 175.719 61.4673 175.378 60.2571 174.696C59.0554 174.006 58.0966 172.953 57.3807 171.538C56.6733 170.115 56.3196 168.317 56.3196 166.143C56.3196 163.919 56.6818 162.061 57.4062 160.57C58.1307 159.078 59.0938 157.962 60.2955 157.22C61.5057 156.479 62.831 156.108 64.2713 156.108C65.3707 156.108 66.2912 156.295 67.0327 156.67C67.7741 157.037 68.3707 157.497 68.8224 158.051C69.2827 158.597 69.6364 159.134 69.8835 159.662H70.0881V156.364H75.4957V176.192C75.4957 177.862 75.0866 179.26 74.2685 180.385C73.4503 181.51 72.3168 182.354 70.8679 182.916C69.4276 183.487 67.7699 183.773 65.8949 183.773ZM66.0099 171.628C66.8878 171.628 67.6293 171.411 68.2344 170.976C68.848 170.533 69.3168 169.902 69.6406 169.084C69.973 168.257 70.1392 167.268 70.1392 166.118C70.1392 164.967 69.9773 163.97 69.6534 163.126C69.3295 162.274 68.8608 161.614 68.2472 161.145C67.6335 160.676 66.8878 160.442 66.0099 160.442C65.1151 160.442 64.3608 160.685 63.7472 161.17C63.1335 161.648 62.669 162.312 62.3537 163.165C62.0384 164.017 61.8807 165.001 61.8807 166.118C61.8807 167.251 62.0384 168.232 62.3537 169.058C62.6776 169.876 63.142 170.511 63.7472 170.963C64.3608 171.406 65.1151 171.628 66.0099 171.628ZM96.1676 161.963L91.1818 162.27C91.0966 161.844 90.9134 161.46 90.6321 161.119C90.3509 160.77 89.9801 160.493 89.5199 160.288C89.0682 160.075 88.527 159.969 87.8963 159.969C87.0526 159.969 86.3409 160.148 85.7614 160.506C85.1818 160.855 84.892 161.324 84.892 161.912C84.892 162.381 85.0795 162.777 85.4545 163.101C85.8295 163.425 86.473 163.685 87.3849 163.881L90.9389 164.597C92.848 164.989 94.2713 165.619 95.2088 166.489C96.1463 167.358 96.6151 168.5 96.6151 169.915C96.6151 171.202 96.2358 172.331 95.4773 173.303C94.7273 174.274 93.696 175.033 92.3835 175.578C91.0795 176.115 89.5753 176.384 87.8707 176.384C85.2713 176.384 83.2003 175.842 81.6577 174.76C80.1236 173.669 79.2244 172.186 78.9602 170.311L84.3168 170.03C84.4787 170.822 84.8707 171.428 85.4929 171.845C86.1151 172.254 86.9119 172.459 87.8835 172.459C88.8381 172.459 89.6051 172.276 90.1847 171.909C90.7727 171.534 91.071 171.053 91.0795 170.464C91.071 169.97 90.8622 169.565 90.4531 169.25C90.044 168.926 89.4134 168.679 88.5611 168.509L85.1605 167.831C83.2429 167.447 81.8153 166.783 80.8778 165.837C79.9489 164.891 79.4844 163.685 79.4844 162.219C79.4844 160.957 79.8253 159.871 80.5071 158.959C81.1974 158.047 82.1648 157.344 83.4091 156.849C84.6619 156.355 86.1278 156.108 87.8068 156.108C90.2869 156.108 92.2386 156.632 93.6619 157.68C95.0938 158.729 95.929 160.156 96.1676 161.963Z" fill="black"/>
<rect x="32" y="206" width="97" height="51" rx="25.5" fill="white"/>
<rect x="32" y="206" width="97" height="51" rx="25.5" stroke="black" stroke-width="2"/>
<path d="M51.0625 240L53.9261 222.545H56.6534L53.7898 240H51.0625ZM43.2472 235.67L43.6989 232.943H57.3352L56.8835 235.67H43.2472ZM44.9261 240L47.7898 222.545H50.517L47.6534 240H44.9261ZM44.2443 229.602L44.7045 226.875H58.3409L57.8807 229.602H44.2443ZM62.6172 240L59.0547 226.909H62.728L64.7564 235.705H64.8757L66.9893 226.909H70.5945L72.7422 235.653H72.853L74.8473 226.909H78.5121L74.9581 240H71.1143L68.8643 231.767H68.7024L66.4524 240H62.6172ZM86.0355 240.256C84.7116 240.256 83.5668 239.974 82.6009 239.412C81.6406 238.844 80.8991 238.054 80.3764 237.043C79.8537 236.026 79.5923 234.847 79.5923 233.506C79.5923 232.153 79.8537 230.972 80.3764 229.96C80.8991 228.943 81.6406 228.153 82.6009 227.591C83.5668 227.023 84.7116 226.739 86.0355 226.739C87.3594 226.739 88.5014 227.023 89.4616 227.591C90.4276 228.153 91.1719 228.943 91.6946 229.96C92.2173 230.972 92.4787 232.153 92.4787 233.506C92.4787 234.847 92.2173 236.026 91.6946 237.043C91.1719 238.054 90.4276 238.844 89.4616 239.412C88.5014 239.974 87.3594 240.256 86.0355 240.256ZM86.0526 237.443C86.6548 237.443 87.1577 237.273 87.5611 236.932C87.9645 236.585 88.2685 236.114 88.473 235.517C88.6832 234.92 88.7884 234.241 88.7884 233.48C88.7884 232.719 88.6832 232.04 88.473 231.443C88.2685 230.847 87.9645 230.375 87.5611 230.028C87.1577 229.682 86.6548 229.509 86.0526 229.509C85.4446 229.509 84.9332 229.682 84.5185 230.028C84.1094 230.375 83.7997 230.847 83.5895 231.443C83.3849 232.04 83.2827 232.719 83.2827 233.48C83.2827 234.241 83.3849 234.92 83.5895 235.517C83.7997 236.114 84.1094 236.585 84.5185 236.932C84.9332 237.273 85.4446 237.443 86.0526 237.443ZM94.8395 240V226.909H98.3594V229.193H98.4957C98.7344 228.381 99.1349 227.767 99.6974 227.352C100.26 226.932 100.908 226.722 101.641 226.722C101.822 226.722 102.018 226.733 102.229 226.756C102.439 226.778 102.624 226.81 102.783 226.849V230.071C102.612 230.02 102.376 229.974 102.075 229.935C101.774 229.895 101.499 229.875 101.249 229.875C100.714 229.875 100.237 229.991 99.8168 230.224C99.402 230.452 99.0724 230.77 98.8281 231.179C98.5895 231.588 98.4702 232.06 98.4702 232.594V240H94.8395ZM107.95 236.233L107.958 231.878H108.487L112.68 226.909H116.847L111.214 233.489H110.353L107.95 236.233ZM104.66 240V222.545H108.29V240H104.66ZM112.842 240L108.989 234.298L111.41 231.733L117.094 240H112.842Z" fill="black"/>
<rect x="141" y="206" width="77" height="51" rx="25.5" fill="white"/>
<rect x="141" y="206" width="77" height="51" rx="25.5" stroke="black" stroke-width="2"/>
<path d="M160.062 240L162.926 222.545H165.653L162.79 240H160.062ZM152.247 235.67L152.699 232.943H166.335L165.884 235.67H152.247ZM153.926 240L156.79 222.545H159.517L156.653 240H153.926ZM153.244 229.602L153.705 226.875H167.341L166.881 229.602H153.244ZM176.075 226.909V229.636H167.995V226.909H176.075ZM169.844 240V225.963C169.844 225.014 170.029 224.227 170.398 223.602C170.773 222.977 171.285 222.509 171.933 222.196C172.58 221.884 173.316 221.727 174.14 221.727C174.697 221.727 175.205 221.77 175.665 221.855C176.131 221.94 176.478 222.017 176.705 222.085L176.058 224.812C175.915 224.767 175.739 224.724 175.529 224.685C175.325 224.645 175.114 224.625 174.898 224.625C174.364 224.625 173.992 224.75 173.782 225C173.572 225.244 173.467 225.588 173.467 226.031V240H169.844ZM186.688 234.426V226.909H190.318V240H186.832V237.622H186.696C186.401 238.389 185.909 239.006 185.222 239.472C184.54 239.937 183.707 240.17 182.724 240.17C181.849 240.17 181.08 239.972 180.415 239.574C179.75 239.176 179.23 238.611 178.855 237.878C178.486 237.145 178.298 236.267 178.293 235.244V226.909H181.923V234.597C181.929 235.369 182.136 235.98 182.545 236.429C182.955 236.878 183.503 237.102 184.19 237.102C184.628 237.102 185.037 237.003 185.418 236.804C185.798 236.599 186.105 236.298 186.338 235.901C186.577 235.503 186.693 235.011 186.688 234.426ZM196.853 232.432V240H193.222V226.909H196.683V229.219H196.836C197.126 228.457 197.612 227.855 198.293 227.412C198.975 226.963 199.802 226.739 200.773 226.739C201.683 226.739 202.475 226.938 203.151 227.335C203.827 227.733 204.353 228.301 204.728 229.04C205.103 229.773 205.29 230.648 205.29 231.665V240H201.66V232.312C201.665 231.511 201.461 230.886 201.046 230.438C200.631 229.983 200.06 229.756 199.333 229.756C198.844 229.756 198.413 229.861 198.038 230.071C197.668 230.281 197.379 230.588 197.168 230.991C196.964 231.389 196.859 231.869 196.853 232.432Z" fill="black"/>
<rect x="32" y="269" width="74" height="51" rx="25.5" fill="white"/>
<rect x="32" y="269" width="74" height="51" rx="25.5" stroke="black" stroke-width="2"/>
<path d="M51.0625 303L53.9261 285.545H56.6534L53.7898 303H51.0625ZM43.2472 298.67L43.6989 295.943H57.3352L56.8835 298.67H43.2472ZM44.9261 303L47.7898 285.545H50.517L47.6534 303H44.9261ZM44.2443 292.602L44.7045 289.875H58.3409L57.8807 292.602H44.2443ZM68.4297 297.426V289.909H72.0604V303H68.5746V300.622H68.4382C68.1428 301.389 67.6513 302.006 66.9638 302.472C66.282 302.937 65.4496 303.17 64.4666 303.17C63.5916 303.17 62.8217 302.972 62.157 302.574C61.4922 302.176 60.9723 301.611 60.5973 300.878C60.228 300.145 60.0405 299.267 60.0348 298.244V289.909H63.6655V297.597C63.6712 298.369 63.8786 298.98 64.2876 299.429C64.6967 299.878 65.245 300.102 65.9325 300.102C66.37 300.102 66.7791 300.003 67.1598 299.804C67.5405 299.599 67.8473 299.298 68.0803 298.901C68.3189 298.503 68.4354 298.011 68.4297 297.426ZM78.5952 295.432V303H74.9645V289.909H78.4247V292.219H78.5781C78.8679 291.457 79.3537 290.855 80.0355 290.412C80.7173 289.963 81.544 289.739 82.5156 289.739C83.4247 289.739 84.2173 289.938 84.8935 290.335C85.5696 290.733 86.0952 291.301 86.4702 292.04C86.8452 292.773 87.0327 293.648 87.0327 294.665V303H83.402V295.312C83.4077 294.511 83.2031 293.886 82.7884 293.438C82.3736 292.983 81.8026 292.756 81.0753 292.756C80.5866 292.756 80.1548 292.861 79.7798 293.071C79.4105 293.281 79.1207 293.588 78.9105 293.991C78.706 294.389 78.6009 294.869 78.5952 295.432ZM89.8942 303V289.909H93.5249V303H89.8942ZM91.718 288.222C91.1783 288.222 90.7152 288.043 90.3288 287.685C89.9482 287.321 89.7578 286.886 89.7578 286.381C89.7578 285.881 89.9482 285.452 90.3288 285.094C90.7152 284.73 91.1783 284.548 91.718 284.548C92.2578 284.548 92.718 284.73 93.0987 285.094C93.4851 285.452 93.6783 285.881 93.6783 286.381C93.6783 286.886 93.4851 287.321 93.0987 287.685C92.718 288.043 92.2578 288.222 91.718 288.222Z" fill="black"/>
<rect x="118" y="269" width="110" height="51" rx="25.5" fill="white"/>
<rect x="118" y="269" width="110" height="51" rx="25.5" stroke="black" stroke-width="2"/>
<path d="M137.062 303L139.926 285.545H142.653L139.79 303H137.062ZM129.247 298.67L129.699 295.943H143.335L142.884 298.67H129.247ZM130.926 303L133.79 285.545H136.517L133.653 303H130.926ZM130.244 292.602L130.705 289.875H144.341L143.881 292.602H130.244ZM153.075 289.909V292.636H144.995V289.909H153.075ZM146.844 303V288.963C146.844 288.014 147.029 287.227 147.398 286.602C147.773 285.977 148.285 285.509 148.933 285.196C149.58 284.884 150.316 284.727 151.14 284.727C151.697 284.727 152.205 284.77 152.665 284.855C153.131 284.94 153.478 285.017 153.705 285.085L153.058 287.812C152.915 287.767 152.739 287.724 152.529 287.685C152.325 287.645 152.114 287.625 151.898 287.625C151.364 287.625 150.992 287.75 150.782 288C150.572 288.244 150.467 288.588 150.467 289.031V303H146.844ZM158.557 303.247C157.722 303.247 156.977 303.102 156.324 302.812C155.67 302.517 155.153 302.082 154.773 301.509C154.398 300.929 154.21 300.207 154.21 299.344C154.21 298.616 154.344 298.006 154.611 297.511C154.878 297.017 155.241 296.619 155.702 296.318C156.162 296.017 156.685 295.79 157.27 295.636C157.861 295.483 158.48 295.375 159.128 295.312C159.889 295.233 160.503 295.159 160.969 295.091C161.435 295.017 161.773 294.909 161.983 294.767C162.193 294.625 162.298 294.415 162.298 294.136V294.085C162.298 293.545 162.128 293.128 161.787 292.832C161.452 292.537 160.974 292.389 160.355 292.389C159.702 292.389 159.182 292.534 158.795 292.824C158.409 293.108 158.153 293.466 158.028 293.898L154.67 293.625C154.841 292.83 155.176 292.142 155.676 291.562C156.176 290.977 156.821 290.528 157.611 290.216C158.406 289.898 159.327 289.739 160.372 289.739C161.099 289.739 161.795 289.824 162.46 289.994C163.131 290.165 163.724 290.429 164.241 290.787C164.764 291.145 165.176 291.605 165.477 292.168C165.778 292.724 165.929 293.392 165.929 294.17V303H162.486V301.185H162.384C162.173 301.594 161.892 301.955 161.54 302.267C161.188 302.574 160.764 302.815 160.27 302.991C159.776 303.162 159.205 303.247 158.557 303.247ZM159.597 300.741C160.131 300.741 160.602 300.636 161.011 300.426C161.42 300.21 161.741 299.92 161.974 299.557C162.207 299.193 162.324 298.781 162.324 298.321V296.932C162.21 297.006 162.054 297.074 161.855 297.136C161.662 297.193 161.443 297.247 161.199 297.298C160.955 297.344 160.71 297.386 160.466 297.426C160.222 297.46 160 297.491 159.801 297.52C159.375 297.582 159.003 297.682 158.685 297.818C158.366 297.955 158.119 298.139 157.943 298.372C157.767 298.599 157.679 298.884 157.679 299.224C157.679 299.719 157.858 300.097 158.216 300.358C158.58 300.614 159.04 300.741 159.597 300.741ZM168.746 303V289.909H172.206V292.219H172.359C172.632 291.452 173.087 290.847 173.723 290.403C174.359 289.96 175.121 289.739 176.007 289.739C176.905 289.739 177.669 289.963 178.3 290.412C178.93 290.855 179.351 291.457 179.561 292.219H179.697C179.964 291.469 180.447 290.869 181.146 290.42C181.851 289.966 182.683 289.739 183.643 289.739C184.865 289.739 185.857 290.128 186.618 290.906C187.385 291.679 187.768 292.776 187.768 294.196V303H184.146V294.912C184.146 294.185 183.953 293.639 183.567 293.276C183.18 292.912 182.697 292.73 182.118 292.73C181.459 292.73 180.945 292.94 180.575 293.361C180.206 293.776 180.021 294.324 180.021 295.006V303H176.501V294.835C176.501 294.193 176.317 293.682 175.947 293.301C175.584 292.92 175.104 292.73 174.507 292.73C174.104 292.73 173.74 292.832 173.416 293.037C173.098 293.236 172.845 293.517 172.658 293.881C172.47 294.239 172.376 294.659 172.376 295.142V303H168.746ZM190.636 303V289.909H194.267V303H190.636ZM192.46 288.222C191.92 288.222 191.457 288.043 191.071 287.685C190.69 287.321 190.5 286.886 190.5 286.381C190.5 285.881 190.69 285.452 191.071 285.094C191.457 284.73 191.92 284.548 192.46 284.548C193 284.548 193.46 284.73 193.841 285.094C194.227 285.452 194.42 285.881 194.42 286.381C194.42 286.886 194.227 287.321 193.841 287.685C193.46 288.043 193 288.222 192.46 288.222ZM200.806 285.545V303H197.175V285.545H200.806ZM205.956 307.909C205.496 307.909 205.064 307.872 204.661 307.798C204.263 307.73 203.933 307.642 203.672 307.534L204.49 304.824C204.916 304.955 205.3 305.026 205.641 305.037C205.987 305.048 206.286 304.969 206.536 304.798C206.791 304.628 206.999 304.338 207.158 303.929L207.371 303.375L202.675 289.909H206.493L209.203 299.523H209.339L212.075 289.909H215.919L210.831 304.415C210.587 305.119 210.254 305.733 209.834 306.256C209.419 306.784 208.893 307.19 208.257 307.474C207.621 307.764 206.854 307.909 205.956 307.909Z" fill="black"/>
<rect x="32" y="332" width="161" height="51" rx="25.5" fill="white"/>
<rect x="32" y="332" width="161" height="51" rx="25.5" stroke="black" stroke-width="2"/>
<path d="M51.0625 366L53.9261 348.545H56.6534L53.7898 366H51.0625ZM43.2472 361.67L43.6989 358.943H57.3352L56.8835 361.67H43.2472ZM44.9261 366L47.7898 348.545H50.517L47.6534 366H44.9261ZM44.2443 355.602L44.7045 352.875H58.3409L57.8807 355.602H44.2443ZM63.6655 348.545V366H60.0348V348.545H63.6655ZM70.3068 366.247C69.4716 366.247 68.7273 366.102 68.0739 365.812C67.4205 365.517 66.9034 365.082 66.5227 364.509C66.1477 363.929 65.9602 363.207 65.9602 362.344C65.9602 361.616 66.0938 361.006 66.3608 360.511C66.6278 360.017 66.9915 359.619 67.4517 359.318C67.9119 359.017 68.4347 358.79 69.0199 358.636C69.6108 358.483 70.2301 358.375 70.8778 358.312C71.6392 358.233 72.2528 358.159 72.7188 358.091C73.1847 358.017 73.5227 357.909 73.733 357.767C73.9432 357.625 74.0483 357.415 74.0483 357.136V357.085C74.0483 356.545 73.8778 356.128 73.5369 355.832C73.2017 355.537 72.7244 355.389 72.1051 355.389C71.4517 355.389 70.9318 355.534 70.5455 355.824C70.1591 356.108 69.9034 356.466 69.7784 356.898L66.4205 356.625C66.5909 355.83 66.9261 355.142 67.4261 354.562C67.9261 353.977 68.571 353.528 69.3608 353.216C70.1563 352.898 71.0767 352.739 72.1222 352.739C72.8494 352.739 73.5455 352.824 74.2102 352.994C74.8807 353.165 75.4744 353.429 75.9915 353.787C76.5142 354.145 76.9261 354.605 77.2273 355.168C77.5284 355.724 77.679 356.392 77.679 357.17V366H74.2358V364.185H74.1335C73.9233 364.594 73.642 364.955 73.2898 365.267C72.9375 365.574 72.5142 365.815 72.0199 365.991C71.5256 366.162 70.9545 366.247 70.3068 366.247ZM71.3466 363.741C71.8807 363.741 72.3523 363.636 72.7614 363.426C73.1705 363.21 73.4915 362.92 73.7244 362.557C73.9574 362.193 74.0739 361.781 74.0739 361.321V359.932C73.9602 360.006 73.804 360.074 73.6051 360.136C73.4119 360.193 73.1932 360.247 72.9489 360.298C72.7045 360.344 72.4602 360.386 72.2159 360.426C71.9716 360.46 71.75 360.491 71.5511 360.52C71.125 360.582 70.7528 360.682 70.4347 360.818C70.1165 360.955 69.8693 361.139 69.6932 361.372C69.517 361.599 69.429 361.884 69.429 362.224C69.429 362.719 69.608 363.097 69.9659 363.358C70.3295 363.614 70.7898 363.741 71.3466 363.741ZM84.1264 358.432V366H80.4957V352.909H83.956V355.219H84.1094C84.3991 354.457 84.8849 353.855 85.5668 353.412C86.2486 352.963 87.0753 352.739 88.0469 352.739C88.956 352.739 89.7486 352.938 90.4247 353.335C91.1009 353.733 91.6264 354.301 92.0014 355.04C92.3764 355.773 92.5639 356.648 92.5639 357.665V366H88.9332V358.312C88.9389 357.511 88.7344 356.886 88.3196 356.438C87.9048 355.983 87.3338 355.756 86.6065 355.756C86.1179 355.756 85.6861 355.861 85.3111 356.071C84.9418 356.281 84.652 356.588 84.4418 356.991C84.2372 357.389 84.1321 357.869 84.1264 358.432ZM101.323 371.182C100.147 371.182 99.1385 371.02 98.2976 370.696C97.4624 370.378 96.7976 369.943 96.3033 369.392C95.8089 368.841 95.4879 368.222 95.3402 367.534L98.6982 367.082C98.8004 367.344 98.9624 367.588 99.1839 367.815C99.4055 368.043 99.6982 368.224 100.062 368.361C100.431 368.503 100.88 368.574 101.408 368.574C102.198 368.574 102.849 368.381 103.36 367.994C103.877 367.614 104.136 366.974 104.136 366.077V363.682H103.982C103.823 364.045 103.585 364.389 103.266 364.713C102.948 365.037 102.539 365.301 102.039 365.506C101.539 365.71 100.942 365.812 100.249 365.812C99.2663 365.812 98.3714 365.585 97.5646 365.131C96.7635 364.67 96.1243 363.969 95.647 363.026C95.1754 362.077 94.9396 360.878 94.9396 359.429C94.9396 357.946 95.1811 356.707 95.6641 355.713C96.147 354.719 96.7891 353.974 97.5902 353.48C98.397 352.986 99.2805 352.739 100.241 352.739C100.974 352.739 101.587 352.864 102.082 353.114C102.576 353.358 102.974 353.665 103.275 354.034C103.582 354.398 103.817 354.756 103.982 355.108H104.119V352.909H107.724V366.128C107.724 367.241 107.451 368.173 106.906 368.923C106.36 369.673 105.604 370.236 104.638 370.611C103.678 370.991 102.573 371.182 101.323 371.182ZM101.4 363.085C101.985 363.085 102.479 362.94 102.883 362.651C103.292 362.355 103.604 361.935 103.82 361.389C104.042 360.838 104.153 360.179 104.153 359.412C104.153 358.645 104.045 357.98 103.829 357.418C103.613 356.849 103.3 356.409 102.891 356.097C102.482 355.784 101.985 355.628 101.4 355.628C100.803 355.628 100.3 355.79 99.8913 356.114C99.4822 356.432 99.1726 356.875 98.9624 357.443C98.7521 358.011 98.647 358.668 98.647 359.412C98.647 360.168 98.7521 360.821 98.9624 361.372C99.1783 361.918 99.4879 362.341 99.8913 362.642C100.3 362.937 100.803 363.085 101.4 363.085ZM119.008 360.426V352.909H122.638V366H119.153V363.622H119.016C118.721 364.389 118.229 365.006 117.542 365.472C116.86 365.937 116.028 366.17 115.045 366.17C114.17 366.17 113.4 365.972 112.735 365.574C112.07 365.176 111.55 364.611 111.175 363.878C110.806 363.145 110.619 362.267 110.613 361.244V352.909H114.244V360.597C114.249 361.369 114.457 361.98 114.866 362.429C115.275 362.878 115.823 363.102 116.511 363.102C116.948 363.102 117.357 363.003 117.738 362.804C118.119 362.599 118.425 362.298 118.658 361.901C118.897 361.503 119.013 361.011 119.008 360.426ZM129.276 366.247C128.44 366.247 127.696 366.102 127.043 365.812C126.389 365.517 125.872 365.082 125.491 364.509C125.116 363.929 124.929 363.207 124.929 362.344C124.929 361.616 125.063 361.006 125.33 360.511C125.597 360.017 125.96 359.619 126.42 359.318C126.881 359.017 127.403 358.79 127.989 358.636C128.58 358.483 129.199 358.375 129.847 358.312C130.608 358.233 131.222 358.159 131.688 358.091C132.153 358.017 132.491 357.909 132.702 357.767C132.912 357.625 133.017 357.415 133.017 357.136V357.085C133.017 356.545 132.847 356.128 132.506 355.832C132.17 355.537 131.693 355.389 131.074 355.389C130.42 355.389 129.901 355.534 129.514 355.824C129.128 356.108 128.872 356.466 128.747 356.898L125.389 356.625C125.56 355.83 125.895 355.142 126.395 354.562C126.895 353.977 127.54 353.528 128.33 353.216C129.125 352.898 130.045 352.739 131.091 352.739C131.818 352.739 132.514 352.824 133.179 352.994C133.849 353.165 134.443 353.429 134.96 353.787C135.483 354.145 135.895 354.605 136.196 355.168C136.497 355.724 136.648 356.392 136.648 357.17V366H133.205V364.185H133.102C132.892 364.594 132.611 364.955 132.259 365.267C131.906 365.574 131.483 365.815 130.989 365.991C130.494 366.162 129.923 366.247 129.276 366.247ZM130.315 363.741C130.849 363.741 131.321 363.636 131.73 363.426C132.139 363.21 132.46 362.92 132.693 362.557C132.926 362.193 133.043 361.781 133.043 361.321V359.932C132.929 360.006 132.773 360.074 132.574 360.136C132.381 360.193 132.162 360.247 131.918 360.298C131.673 360.344 131.429 360.386 131.185 360.426C130.94 360.46 130.719 360.491 130.52 360.52C130.094 360.582 129.722 360.682 129.403 360.818C129.085 360.955 128.838 361.139 128.662 361.372C128.486 361.599 128.398 361.884 128.398 362.224C128.398 362.719 128.577 363.097 128.935 363.358C129.298 363.614 129.759 363.741 130.315 363.741ZM145.362 371.182C144.186 371.182 143.178 371.02 142.337 370.696C141.501 370.378 140.837 369.943 140.342 369.392C139.848 368.841 139.527 368.222 139.379 367.534L142.737 367.082C142.839 367.344 143.001 367.588 143.223 367.815C143.445 368.043 143.737 368.224 144.101 368.361C144.47 368.503 144.919 368.574 145.447 368.574C146.237 368.574 146.888 368.381 147.399 367.994C147.916 367.614 148.175 366.974 148.175 366.077V363.682H148.021C147.862 364.045 147.624 364.389 147.305 364.713C146.987 365.037 146.578 365.301 146.078 365.506C145.578 365.71 144.982 365.812 144.288 365.812C143.305 365.812 142.411 365.585 141.604 365.131C140.803 364.67 140.163 363.969 139.686 363.026C139.214 362.077 138.979 360.878 138.979 359.429C138.979 357.946 139.22 356.707 139.703 355.713C140.186 354.719 140.828 353.974 141.629 353.48C142.436 352.986 143.32 352.739 144.28 352.739C145.013 352.739 145.626 352.864 146.121 353.114C146.615 353.358 147.013 353.665 147.314 354.034C147.621 354.398 147.857 354.756 148.021 355.108H148.158V352.909H151.763V366.128C151.763 367.241 151.49 368.173 150.945 368.923C150.399 369.673 149.643 370.236 148.678 370.611C147.717 370.991 146.612 371.182 145.362 371.182ZM145.439 363.085C146.024 363.085 146.518 362.94 146.922 362.651C147.331 362.355 147.643 361.935 147.859 361.389C148.081 360.838 148.192 360.179 148.192 359.412C148.192 358.645 148.084 357.98 147.868 357.418C147.652 356.849 147.339 356.409 146.93 356.097C146.521 355.784 146.024 355.628 145.439 355.628C144.842 355.628 144.339 355.79 143.93 356.114C143.521 356.432 143.212 356.875 143.001 357.443C142.791 358.011 142.686 358.668 142.686 359.412C142.686 360.168 142.791 360.821 143.001 361.372C143.217 361.918 143.527 362.341 143.93 362.642C144.339 362.937 144.842 363.085 145.439 363.085ZM160.618 366.256C159.271 366.256 158.112 365.983 157.141 365.438C156.175 364.886 155.43 364.108 154.908 363.102C154.385 362.091 154.124 360.895 154.124 359.514C154.124 358.168 154.385 356.986 154.908 355.969C155.43 354.952 156.166 354.159 157.115 353.591C158.07 353.023 159.189 352.739 160.473 352.739C161.337 352.739 162.141 352.878 162.885 353.156C163.635 353.429 164.288 353.841 164.845 354.392C165.408 354.943 165.845 355.636 166.158 356.472C166.47 357.301 166.626 358.273 166.626 359.386V360.384H155.572V358.134H163.209C163.209 357.611 163.095 357.148 162.868 356.744C162.641 356.341 162.325 356.026 161.922 355.798C161.524 355.565 161.061 355.449 160.533 355.449C159.982 355.449 159.493 355.577 159.067 355.832C158.646 356.082 158.317 356.42 158.078 356.847C157.839 357.267 157.717 357.736 157.712 358.253V360.392C157.712 361.04 157.831 361.599 158.07 362.071C158.314 362.543 158.658 362.906 159.101 363.162C159.544 363.418 160.07 363.545 160.678 363.545C161.081 363.545 161.45 363.489 161.786 363.375C162.121 363.261 162.408 363.091 162.646 362.864C162.885 362.636 163.067 362.358 163.192 362.028L166.55 362.25C166.379 363.057 166.03 363.761 165.501 364.364C164.979 364.96 164.303 365.426 163.473 365.761C162.649 366.091 161.697 366.256 160.618 366.256ZM179.888 356.642L176.564 356.847C176.507 356.562 176.385 356.307 176.197 356.08C176.01 355.847 175.763 355.662 175.456 355.526C175.155 355.384 174.794 355.312 174.374 355.312C173.811 355.312 173.337 355.432 172.95 355.67C172.564 355.903 172.371 356.216 172.371 356.608C172.371 356.92 172.496 357.185 172.746 357.401C172.996 357.616 173.425 357.79 174.033 357.92L176.402 358.398C177.675 358.659 178.624 359.08 179.249 359.659C179.874 360.239 180.186 361 180.186 361.943C180.186 362.801 179.933 363.554 179.428 364.202C178.928 364.849 178.24 365.355 177.365 365.719C176.496 366.077 175.493 366.256 174.357 366.256C172.624 366.256 171.243 365.895 170.214 365.173C169.192 364.446 168.592 363.457 168.416 362.207L171.987 362.02C172.095 362.548 172.357 362.952 172.771 363.23C173.186 363.503 173.717 363.639 174.365 363.639C175.001 363.639 175.513 363.517 175.899 363.273C176.291 363.023 176.49 362.702 176.496 362.31C176.49 361.98 176.351 361.71 176.078 361.5C175.805 361.284 175.385 361.119 174.817 361.006L172.55 360.554C171.271 360.298 170.32 359.855 169.695 359.224C169.075 358.594 168.766 357.79 168.766 356.812C168.766 355.972 168.993 355.247 169.447 354.639C169.908 354.031 170.553 353.562 171.382 353.233C172.217 352.903 173.195 352.739 174.314 352.739C175.967 352.739 177.268 353.088 178.217 353.787C179.172 354.486 179.729 355.437 179.888 356.642Z" fill="black"/>
</g>
<rect width="1123" height="1024" transform="translate(317)" fill="#FFF183"/>
<g filter="url(#filter1_d_1_2)">
<rect x="337" y="20" width="1073" height="105" fill="white"/>
<rect x="338" y="21" width="1071" height="103" stroke="black" stroke-width="2"/>
<path d="M379 99.1667C393.728 99.1667 405.667 87.2276 405.667 72.5C405.667 57.7724 393.728 45.8333 379 45.8333C364.272 45.8333 352.333 57.7724 352.333 72.5C352.333 87.2276 364.272 99.1667 379 99.1667Z" stroke="black" stroke-width="4" stroke-linecap="round" stroke-linejoin="round"/>
<path d="M447.618 65.8636V69.9545H435.793V65.8636H447.618ZM438.477 61.1591H443.923V79.4659C443.923 79.9687 444 80.3608 444.153 80.642C444.307 80.9148 444.52 81.1065 444.793 81.2173C445.074 81.3281 445.398 81.3835 445.764 81.3835C446.02 81.3835 446.276 81.3622 446.531 81.3196C446.787 81.2685 446.983 81.2301 447.119 81.2045L447.976 85.2571C447.703 85.3423 447.32 85.4403 446.825 85.5511C446.331 85.6705 445.73 85.7429 445.023 85.7685C443.71 85.8196 442.56 85.6449 441.571 85.2443C440.591 84.8437 439.828 84.2216 439.283 83.3778C438.737 82.5341 438.469 81.4687 438.477 80.1818V61.1591ZM456.765 85.8707C455.512 85.8707 454.396 85.6534 453.415 85.2188C452.435 84.7756 451.66 84.1236 451.089 83.2628C450.526 82.3935 450.245 81.3111 450.245 80.0156C450.245 78.9247 450.445 78.0085 450.846 77.267C451.246 76.5256 451.792 75.929 452.482 75.4773C453.173 75.0256 453.957 74.6847 454.835 74.4545C455.721 74.2244 456.65 74.0625 457.621 73.9688C458.763 73.8494 459.684 73.7386 460.383 73.6364C461.082 73.5256 461.589 73.3636 461.904 73.1506C462.219 72.9375 462.377 72.6222 462.377 72.2045V72.1278C462.377 71.3182 462.121 70.6918 461.61 70.2486C461.107 69.8054 460.391 69.5838 459.462 69.5838C458.482 69.5838 457.702 69.8011 457.123 70.2358C456.543 70.6619 456.16 71.1989 455.972 71.8466L450.935 71.4375C451.191 70.2443 451.694 69.2131 452.444 68.3438C453.194 67.4659 454.161 66.7926 455.346 66.3239C456.539 65.8466 457.92 65.608 459.488 65.608C460.579 65.608 461.623 65.7358 462.62 65.9915C463.626 66.2472 464.516 66.6435 465.292 67.1804C466.076 67.7173 466.694 68.4077 467.146 69.2514C467.597 70.0866 467.823 71.0881 467.823 72.2557V85.5H462.658V82.777H462.505C462.19 83.3906 461.768 83.9318 461.239 84.4006C460.711 84.8608 460.076 85.223 459.335 85.4872C458.593 85.7429 457.737 85.8707 456.765 85.8707ZM458.325 82.1122C459.126 82.1122 459.833 81.9545 460.447 81.6392C461.06 81.3153 461.542 80.8807 461.891 80.3352C462.241 79.7898 462.415 79.1719 462.415 78.4815V76.3977C462.245 76.5085 462.011 76.6108 461.712 76.7045C461.423 76.7898 461.094 76.8707 460.728 76.9474C460.362 77.0156 459.995 77.0795 459.629 77.1392C459.262 77.1903 458.93 77.2372 458.631 77.2798C457.992 77.3736 457.434 77.5227 456.957 77.7273C456.479 77.9318 456.109 78.2088 455.844 78.5582C455.58 78.8991 455.448 79.3253 455.448 79.8366C455.448 80.5781 455.717 81.1449 456.254 81.5369C456.799 81.9205 457.489 82.1122 458.325 82.1122ZM488.386 71.4631L483.401 71.7699C483.315 71.3437 483.132 70.9602 482.851 70.6193C482.57 70.2699 482.199 69.9929 481.739 69.7884C481.287 69.5753 480.746 69.4688 480.115 69.4688C479.271 69.4688 478.56 69.6477 477.98 70.0057C477.401 70.3551 477.111 70.8239 477.111 71.4119C477.111 71.8807 477.298 72.277 477.673 72.6009C478.048 72.9247 478.692 73.1847 479.604 73.3807L483.158 74.0966C485.067 74.4886 486.49 75.1193 487.428 75.9886C488.365 76.858 488.834 78 488.834 79.4148C488.834 80.7017 488.455 81.831 487.696 82.8026C486.946 83.7741 485.915 84.5327 484.602 85.0781C483.298 85.6151 481.794 85.8835 480.089 85.8835C477.49 85.8835 475.419 85.3423 473.876 84.2599C472.342 83.169 471.443 81.6861 471.179 79.8111L476.536 79.5298C476.697 80.3224 477.089 80.9276 477.712 81.3452C478.334 81.7543 479.131 81.9588 480.102 81.9588C481.057 81.9588 481.824 81.7756 482.403 81.4091C482.991 81.0341 483.29 80.5526 483.298 79.9645C483.29 79.4702 483.081 79.0653 482.672 78.75C482.263 78.4261 481.632 78.179 480.78 78.0085L477.379 77.331C475.462 76.9474 474.034 76.2827 473.097 75.3366C472.168 74.3906 471.703 73.1847 471.703 71.7188C471.703 70.4574 472.044 69.3707 472.726 68.4588C473.416 67.5469 474.384 66.8438 475.628 66.3494C476.881 65.8551 478.347 65.608 480.026 65.608C482.506 65.608 484.457 66.1321 485.881 67.1804C487.313 68.2287 488.148 69.6562 488.386 71.4631ZM497.198 79.8494L497.211 73.3168H498.003L504.293 65.8636H510.544L502.094 75.733H500.803L497.198 79.8494ZM492.263 85.5V59.3182H497.709V85.5H492.263ZM504.536 85.5L498.757 76.9474L502.388 73.0994L510.915 85.5H504.536ZM526.994 74.1477V85.5H521.548V65.8636H526.739V69.3281H526.969C527.403 68.1861 528.132 67.2827 529.155 66.6179C530.178 65.9446 531.418 65.608 532.875 65.608C534.239 65.608 535.428 65.9062 536.442 66.5028C537.456 67.0994 538.244 67.9517 538.807 69.0597C539.369 70.1591 539.651 71.4716 539.651 72.9972V85.5H534.205V73.9688C534.213 72.767 533.906 71.8295 533.284 71.1562C532.662 70.4744 531.805 70.1335 530.714 70.1335C529.982 70.1335 529.334 70.2912 528.771 70.6065C528.217 70.9219 527.783 71.3821 527.467 71.9872C527.161 72.5838 527.003 73.304 526.994 74.1477ZM547.126 85.8324C546.282 85.8324 545.558 85.5341 544.953 84.9375C544.356 84.3324 544.058 83.608 544.058 82.7642C544.058 81.929 544.356 81.2131 544.953 80.6165C545.558 80.0199 546.282 79.7216 547.126 79.7216C547.944 79.7216 548.66 80.0199 549.274 80.6165C549.887 81.2131 550.194 81.929 550.194 82.7642C550.194 83.3267 550.049 83.8423 549.76 84.3111C549.478 84.7713 549.108 85.142 548.647 85.4233C548.187 85.696 547.68 85.8324 547.126 85.8324ZM562.735 59.3182V85.5H557.2V64.5724H557.047L551.051 68.331V63.4219L557.532 59.3182H562.735Z" fill="black"/>
<path d="M1272 82.5C1277.52 82.5 1282 78.0228 1282 72.5C1282 66.9772 1277.52 62.5 1272 62.5C1266.48 62.5 1262 66.9772 1262 72.5C1262 78.0228 1266.48 82.5 1272 82.5Z" stroke="black" stroke-width="2" stroke-linecap="round" stroke-linejoin="round"/>
<path d="M1272 66.5V72.5H1267.5" stroke="black" stroke-width="2" stroke-linecap="round" stroke-linejoin="round"/>
<path d="M1300.46 79.6989C1299.49 79.6989 1298.62 79.5308 1297.85 79.1946C1297.09 78.8584 1296.48 78.392 1296.04 77.7955C1295.6 77.1941 1295.36 76.4981 1295.33 75.7074H1297.56C1297.59 76.1383 1297.73 76.5123 1297.99 76.8295C1298.26 77.142 1298.6 77.3835 1299.03 77.554C1299.45 77.7244 1299.93 77.8097 1300.45 77.8097C1301.02 77.8097 1301.53 77.7102 1301.97 77.5114C1302.41 77.3125 1302.76 77.0355 1303.01 76.6804C1303.26 76.3205 1303.39 75.9062 1303.39 75.4375C1303.39 74.9498 1303.26 74.5213 1303.01 74.152C1302.77 73.7779 1302.4 73.4844 1301.93 73.2713C1301.45 73.0582 1300.88 72.9517 1300.21 72.9517H1298.98V71.1619H1300.21C1300.75 71.1619 1301.22 71.0649 1301.63 70.8707C1302.04 70.6766 1302.36 70.4067 1302.59 70.0611C1302.83 69.7107 1302.94 69.3011 1302.94 68.8324C1302.94 68.3826 1302.84 67.992 1302.64 67.6605C1302.44 67.3243 1302.15 67.0616 1301.78 66.8722C1301.42 66.6828 1300.99 66.5881 1300.49 66.5881C1300.02 66.5881 1299.58 66.6757 1299.16 66.8509C1298.76 67.0213 1298.42 67.2675 1298.17 67.5895C1297.91 67.9067 1297.78 68.2879 1297.76 68.733H1295.63C1295.66 67.947 1295.89 67.2557 1296.33 66.6591C1296.77 66.0625 1297.36 65.5961 1298.09 65.2599C1298.82 64.9238 1299.63 64.7557 1300.52 64.7557C1301.45 64.7557 1302.26 64.938 1302.93 65.3026C1303.62 65.6624 1304.14 66.143 1304.51 66.7443C1304.89 67.3456 1305.07 68.0038 1305.07 68.7188C1305.07 69.5331 1304.84 70.2244 1304.38 70.7926C1303.93 71.3608 1303.32 71.742 1302.57 71.9361V72.0497C1303.53 72.1965 1304.28 72.58 1304.81 73.2003C1305.34 73.8205 1305.61 74.59 1305.61 75.5085C1305.61 76.3087 1305.39 77.026 1304.94 77.6605C1304.49 78.295 1303.88 78.7945 1303.11 79.1591C1302.34 79.5189 1301.46 79.6989 1300.46 79.6989ZM1317.69 79.7131C1316.81 79.7131 1316.03 79.4882 1315.34 79.0384C1314.65 78.5838 1314.11 77.9375 1313.72 77.0994C1313.33 76.2566 1313.14 75.2457 1313.14 74.0668C1313.14 72.8878 1313.33 71.8793 1313.72 71.0412C1314.12 70.2031 1314.67 69.5616 1315.36 69.1165C1316.05 68.6714 1316.83 68.4489 1317.71 68.4489C1318.39 68.4489 1318.93 68.5625 1319.34 68.7898C1319.76 69.0123 1320.08 69.2727 1320.31 69.571C1320.54 69.8693 1320.72 70.1321 1320.85 70.3594H1320.98V64.9545H1323.1V79.5H1321.03V77.8026H1320.85C1320.72 78.0346 1320.54 78.2997 1320.29 78.598C1320.06 78.8963 1319.73 79.1567 1319.31 79.3793C1318.9 79.6018 1318.36 79.7131 1317.69 79.7131ZM1318.16 77.902C1318.77 77.902 1319.29 77.741 1319.71 77.419C1320.14 77.0923 1320.46 76.6402 1320.68 76.0625C1320.9 75.4848 1321.01 74.8125 1321.01 74.0455C1321.01 73.2879 1320.9 72.625 1320.69 72.0568C1320.47 71.4886 1320.15 71.0459 1319.73 70.7287C1319.3 70.4115 1318.78 70.2528 1318.16 70.2528C1317.52 70.2528 1316.99 70.4186 1316.57 70.75C1316.14 71.0814 1315.82 71.5336 1315.6 72.1065C1315.39 72.6795 1315.28 73.3258 1315.28 74.0455C1315.28 74.7746 1315.39 75.4304 1315.61 76.0128C1315.82 76.5952 1316.15 77.0568 1316.57 77.3977C1317 77.7339 1317.53 77.902 1318.16 77.902ZM1329.31 79.7415C1328.61 79.7415 1327.99 79.6136 1327.43 79.358C1326.87 79.0975 1326.43 78.7211 1326.1 78.2287C1325.78 77.7363 1325.62 77.1326 1325.62 76.4176C1325.62 75.8021 1325.74 75.2955 1325.97 74.8977C1326.21 74.5 1326.53 74.1851 1326.93 73.9531C1327.34 73.7211 1327.79 73.5459 1328.28 73.4276C1328.78 73.3092 1329.29 73.2192 1329.8 73.1577C1330.46 73.0819 1330.99 73.0204 1331.39 72.973C1331.8 72.9209 1332.1 72.8381 1332.28 72.7244C1332.47 72.6108 1332.56 72.4261 1332.56 72.1705V72.1207C1332.56 71.5005 1332.38 71.0199 1332.03 70.679C1331.69 70.3381 1331.17 70.1676 1330.48 70.1676C1329.77 70.1676 1329.21 70.3262 1328.79 70.6435C1328.39 70.956 1328.11 71.304 1327.95 71.6875L1325.95 71.233C1326.19 70.5701 1326.54 70.035 1326.99 69.6278C1327.45 69.2159 1327.98 68.9176 1328.57 68.733C1329.17 68.5436 1329.8 68.4489 1330.46 68.4489C1330.89 68.4489 1331.35 68.5009 1331.84 68.6051C1332.33 68.7045 1332.79 68.8892 1333.22 69.1591C1333.65 69.429 1334 69.8149 1334.28 70.3168C1334.55 70.8139 1334.69 71.4602 1334.69 72.2557V79.5H1332.62V78.0085H1332.53C1332.39 78.2831 1332.19 78.553 1331.91 78.8182C1331.64 79.0833 1331.28 79.3035 1330.85 79.4787C1330.42 79.6539 1329.91 79.7415 1329.31 79.7415ZM1329.77 78.0369C1330.35 78.0369 1330.86 77.9209 1331.27 77.6889C1331.69 77.4569 1332.01 77.1539 1332.23 76.7798C1332.45 76.401 1332.57 75.9962 1332.57 75.5653V74.1591C1332.49 74.2348 1332.34 74.3059 1332.12 74.3722C1331.91 74.4337 1331.67 74.4882 1331.39 74.5355C1331.12 74.5781 1330.85 74.6184 1330.59 74.6562C1330.33 74.6894 1330.11 74.7178 1329.94 74.7415C1329.53 74.7936 1329.15 74.8812 1328.81 75.0043C1328.47 75.1274 1328.2 75.3049 1328 75.5369C1327.8 75.7642 1327.7 76.0672 1327.7 76.446C1327.7 76.9716 1327.89 77.3693 1328.28 77.6392C1328.67 77.9044 1329.17 78.0369 1329.77 78.0369ZM1338.47 83.5909C1338.15 83.5909 1337.86 83.5649 1337.6 83.5128C1337.34 83.4654 1337.15 83.4134 1337.02 83.3565L1337.53 81.6165C1337.92 81.7206 1338.27 81.7656 1338.57 81.7514C1338.87 81.7372 1339.14 81.6236 1339.37 81.4105C1339.61 81.1974 1339.82 80.8494 1340 80.3665L1340.26 79.642L1336.27 68.5909H1338.54L1341.3 77.0568H1341.42L1344.18 68.5909H1346.46L1341.96 80.956C1341.76 81.5241 1341.49 82.0047 1341.17 82.3977C1340.85 82.7955 1340.46 83.0938 1340.02 83.2926C1339.57 83.4915 1339.06 83.5909 1338.47 83.5909ZM1356.63 71.2543L1354.7 71.5952C1354.62 71.349 1354.5 71.1146 1354.32 70.892C1354.15 70.6695 1353.92 70.4872 1353.63 70.3452C1353.33 70.2031 1352.96 70.1321 1352.52 70.1321C1351.92 70.1321 1351.42 70.267 1351.02 70.5369C1350.62 70.8021 1350.42 71.1454 1350.42 71.5668C1350.42 71.9313 1350.55 72.2249 1350.82 72.4474C1351.09 72.67 1351.53 72.8523 1352.13 72.9943L1353.86 73.392C1354.86 73.6241 1355.61 73.9815 1356.1 74.4645C1356.6 74.9474 1356.84 75.5748 1356.84 76.3466C1356.84 77 1356.65 77.5824 1356.27 78.0938C1355.9 78.6004 1355.38 78.9981 1354.7 79.2869C1354.04 79.5758 1353.26 79.7202 1352.38 79.7202C1351.16 79.7202 1350.16 79.4598 1349.39 78.9389C1348.62 78.4134 1348.15 77.6676 1347.97 76.7017L1350.02 76.3892C1350.15 76.9242 1350.42 77.3291 1350.81 77.6037C1351.21 77.8736 1351.73 78.0085 1352.37 78.0085C1353.06 78.0085 1353.62 77.8641 1354.04 77.5753C1354.45 77.2817 1354.66 76.9242 1354.66 76.5028C1354.66 76.1619 1354.53 75.8755 1354.28 75.6435C1354.03 75.4115 1353.64 75.2363 1353.12 75.1179L1351.27 74.7131C1350.26 74.4811 1349.5 74.1117 1349.02 73.6051C1348.53 73.0985 1348.29 72.4569 1348.29 71.6804C1348.29 71.0365 1348.47 70.473 1348.83 69.9901C1349.19 69.5071 1349.69 69.1307 1350.32 68.8608C1350.96 68.5862 1351.68 68.4489 1352.5 68.4489C1353.68 68.4489 1354.61 68.7045 1355.29 69.2159C1355.96 69.7225 1356.41 70.402 1356.63 71.2543ZM1366.59 64.9545V79.5H1364.47V64.9545H1366.59ZM1374.15 79.7202C1373.08 79.7202 1372.15 79.4905 1371.38 79.0312C1370.6 78.5672 1370.01 77.9162 1369.59 77.0781C1369.17 76.2353 1368.96 75.2481 1368.96 74.1165C1368.96 72.9991 1369.17 72.0142 1369.59 71.1619C1370.01 70.3097 1370.59 69.6444 1371.35 69.1662C1372.1 68.688 1372.99 68.4489 1374 68.4489C1374.62 68.4489 1375.22 68.5507 1375.79 68.7543C1376.37 68.9579 1376.89 69.2775 1377.35 69.7131C1377.81 70.1487 1378.17 70.7145 1378.44 71.4105C1378.7 72.1018 1378.83 72.9422 1378.83 73.9318V74.6847H1370.16V73.0938H1376.75C1376.75 72.535 1376.64 72.0402 1376.41 71.6094C1376.18 71.1738 1375.86 70.8305 1375.45 70.5795C1375.05 70.3286 1374.57 70.2031 1374.02 70.2031C1373.42 70.2031 1372.9 70.3499 1372.46 70.6435C1372.01 70.9323 1371.67 71.3111 1371.43 71.7798C1371.2 72.2438 1371.08 72.7481 1371.08 73.2926V74.5355C1371.08 75.2647 1371.21 75.8849 1371.46 76.3963C1371.72 76.9077 1372.08 77.2983 1372.55 77.5682C1373.01 77.8333 1373.55 77.9659 1374.17 77.9659C1374.58 77.9659 1374.94 77.9091 1375.27 77.7955C1375.61 77.6771 1375.89 77.5019 1376.13 77.2699C1376.38 77.0379 1376.56 76.7514 1376.69 76.4105L1378.7 76.7727C1378.54 77.3646 1378.25 77.883 1377.83 78.3281C1377.42 78.7685 1376.9 79.1117 1376.28 79.358C1375.66 79.5994 1374.95 79.7202 1374.15 79.7202ZM1386.38 68.5909V70.2955H1380.22V68.5909H1386.38ZM1381.91 79.5V67.3267C1381.91 66.6449 1382.06 66.0791 1382.35 65.6293C1382.65 65.1747 1383.05 64.8362 1383.54 64.6136C1384.03 64.3864 1384.57 64.2727 1385.15 64.2727C1385.57 64.2727 1385.94 64.3082 1386.24 64.3793C1386.54 64.4455 1386.77 64.5071 1386.91 64.5639L1386.42 66.2827C1386.32 66.2543 1386.19 66.2211 1386.03 66.1832C1385.88 66.1406 1385.69 66.1193 1385.46 66.1193C1384.95 66.1193 1384.58 66.2472 1384.36 66.5028C1384.14 66.7585 1384.03 67.1278 1384.03 67.6108V79.5H1381.91ZM1393.66 68.5909V70.2955H1387.71V68.5909H1393.66ZM1389.3 65.9773H1391.43V76.2969C1391.43 76.7088 1391.49 77.0189 1391.61 77.2273C1391.73 77.4309 1391.89 77.5705 1392.09 77.6463C1392.29 77.7173 1392.5 77.7528 1392.73 77.7528C1392.9 77.7528 1393.05 77.741 1393.18 77.7173C1393.31 77.6937 1393.41 77.6747 1393.48 77.6605L1393.86 79.4148C1393.74 79.4621 1393.56 79.5095 1393.34 79.5568C1393.11 79.6089 1392.83 79.6373 1392.49 79.642C1391.93 79.6515 1391.41 79.5521 1390.92 79.3438C1390.44 79.1354 1390.05 78.8134 1389.75 78.3778C1389.45 77.9422 1389.3 77.3954 1389.3 76.7372V65.9773Z" fill="black"/>
</g>
<g filter="url(#filter2_d_1_2)">
<rect x="337" y="145" width="1073" height="105" fill="white"/>
<rect x="338" y="146" width="1071" height="103" stroke="black" stroke-width="2"/>
<path d="M379 224.167C393.728 224.167 405.667 212.228 405.667 197.5C405.667 182.772 393.728 170.833 379 170.833C364.272 170.833 352.333 182.772 352.333 197.5C352.333 212.228 364.272 224.167 379 224.167Z" stroke="black" stroke-width="4" stroke-linecap="round" stroke-linejoin="round"/>
<path d="M447.618 190.864V194.955H435.793V190.864H447.618ZM438.477 186.159H443.923V204.466C443.923 204.969 444 205.361 444.153 205.642C444.307 205.915 444.52 206.107 444.793 206.217C445.074 206.328 445.398 206.384 445.764 206.384C446.02 206.384 446.276 206.362 446.531 206.32C446.787 206.268 446.983 206.23 447.119 206.205L447.976 210.257C447.703 210.342 447.32 210.44 446.825 210.551C446.331 210.67 445.73 210.743 445.023 210.768C443.71 210.82 442.56 210.645 441.571 210.244C440.591 209.844 439.828 209.222 439.283 208.378C438.737 207.534 438.469 206.469 438.477 205.182V186.159ZM456.765 210.871C455.512 210.871 454.396 210.653 453.415 210.219C452.435 209.776 451.66 209.124 451.089 208.263C450.526 207.393 450.245 206.311 450.245 205.016C450.245 203.925 450.445 203.009 450.846 202.267C451.246 201.526 451.792 200.929 452.482 200.477C453.173 200.026 453.957 199.685 454.835 199.455C455.721 199.224 456.65 199.062 457.621 198.969C458.763 198.849 459.684 198.739 460.383 198.636C461.082 198.526 461.589 198.364 461.904 198.151C462.219 197.937 462.377 197.622 462.377 197.205V197.128C462.377 196.318 462.121 195.692 461.61 195.249C461.107 194.805 460.391 194.584 459.462 194.584C458.482 194.584 457.702 194.801 457.123 195.236C456.543 195.662 456.16 196.199 455.972 196.847L450.935 196.438C451.191 195.244 451.694 194.213 452.444 193.344C453.194 192.466 454.161 191.793 455.346 191.324C456.539 190.847 457.92 190.608 459.488 190.608C460.579 190.608 461.623 190.736 462.62 190.991C463.626 191.247 464.516 191.643 465.292 192.18C466.076 192.717 466.694 193.408 467.146 194.251C467.597 195.087 467.823 196.088 467.823 197.256V210.5H462.658V207.777H462.505C462.19 208.391 461.768 208.932 461.239 209.401C460.711 209.861 460.076 210.223 459.335 210.487C458.593 210.743 457.737 210.871 456.765 210.871ZM458.325 207.112C459.126 207.112 459.833 206.955 460.447 206.639C461.06 206.315 461.542 205.881 461.891 205.335C462.241 204.79 462.415 204.172 462.415 203.482V201.398C462.245 201.509 462.011 201.611 461.712 201.705C461.423 201.79 461.094 201.871 460.728 201.947C460.362 202.016 459.995 202.08 459.629 202.139C459.262 202.19 458.93 202.237 458.631 202.28C457.992 202.374 457.434 202.523 456.957 202.727C456.479 202.932 456.109 203.209 455.844 203.558C455.58 203.899 455.448 204.325 455.448 204.837C455.448 205.578 455.717 206.145 456.254 206.537C456.799 206.92 457.489 207.112 458.325 207.112ZM488.386 196.463L483.401 196.77C483.315 196.344 483.132 195.96 482.851 195.619C482.57 195.27 482.199 194.993 481.739 194.788C481.287 194.575 480.746 194.469 480.115 194.469C479.271 194.469 478.56 194.648 477.98 195.006C477.401 195.355 477.111 195.824 477.111 196.412C477.111 196.881 477.298 197.277 477.673 197.601C478.048 197.925 478.692 198.185 479.604 198.381L483.158 199.097C485.067 199.489 486.49 200.119 487.428 200.989C488.365 201.858 488.834 203 488.834 204.415C488.834 205.702 488.455 206.831 487.696 207.803C486.946 208.774 485.915 209.533 484.602 210.078C483.298 210.615 481.794 210.884 480.089 210.884C477.49 210.884 475.419 210.342 473.876 209.26C472.342 208.169 471.443 206.686 471.179 204.811L476.536 204.53C476.697 205.322 477.089 205.928 477.712 206.345C478.334 206.754 479.131 206.959 480.102 206.959C481.057 206.959 481.824 206.776 482.403 206.409C482.991 206.034 483.29 205.553 483.298 204.964C483.29 204.47 483.081 204.065 482.672 203.75C482.263 203.426 481.632 203.179 480.78 203.009L477.379 202.331C475.462 201.947 474.034 201.283 473.097 200.337C472.168 199.391 471.703 198.185 471.703 196.719C471.703 195.457 472.044 194.371 472.726 193.459C473.416 192.547 474.384 191.844 475.628 191.349C476.881 190.855 478.347 190.608 480.026 190.608C482.506 190.608 484.457 191.132 485.881 192.18C487.313 193.229 488.148 194.656 488.386 196.463ZM497.198 204.849L497.211 198.317H498.003L504.293 190.864H510.544L502.094 200.733H500.803L497.198 204.849ZM492.263 210.5V184.318H497.709V210.5H492.263ZM504.536 210.5L498.757 201.947L502.388 198.099L510.915 210.5H504.536ZM526.994 199.148V210.5H521.548V190.864H526.739V194.328H526.969C527.403 193.186 528.132 192.283 529.155 191.618C530.178 190.945 531.418 190.608 532.875 190.608C534.239 190.608 535.428 190.906 536.442 191.503C537.456 192.099 538.244 192.952 538.807 194.06C539.369 195.159 539.651 196.472 539.651 197.997V210.5H534.205V198.969C534.213 197.767 533.906 196.83 533.284 196.156C532.662 195.474 531.805 195.134 530.714 195.134C529.982 195.134 529.334 195.291 528.771 195.607C528.217 195.922 527.783 196.382 527.467 196.987C527.161 197.584 527.003 198.304 526.994 199.148ZM547.126 210.832C546.282 210.832 545.558 210.534 544.953 209.938C544.356 209.332 544.058 208.608 544.058 207.764C544.058 206.929 544.356 206.213 544.953 205.616C545.558 205.02 546.282 204.722 547.126 204.722C547.944 204.722 548.66 205.02 549.274 205.616C549.887 206.213 550.194 206.929 550.194 207.764C550.194 208.327 550.049 208.842 549.76 209.311C549.478 209.771 549.108 210.142 548.647 210.423C548.187 210.696 547.68 210.832 547.126 210.832ZM554.614 210.5V206.511L563.934 197.882C564.727 197.115 565.391 196.425 565.928 195.811C566.474 195.197 566.887 194.597 567.168 194.009C567.45 193.412 567.59 192.768 567.59 192.078C567.59 191.311 567.415 190.651 567.066 190.097C566.717 189.534 566.239 189.104 565.634 188.805C565.029 188.499 564.343 188.345 563.576 188.345C562.775 188.345 562.076 188.507 561.479 188.831C560.883 189.155 560.423 189.619 560.099 190.224C559.775 190.83 559.613 191.55 559.613 192.385H554.359C554.359 190.672 554.746 189.185 555.522 187.923C556.298 186.662 557.384 185.686 558.782 184.996C560.18 184.305 561.79 183.96 563.614 183.96C565.489 183.96 567.121 184.293 568.511 184.957C569.908 185.614 570.995 186.526 571.771 187.693C572.546 188.861 572.934 190.199 572.934 191.707C572.934 192.696 572.738 193.672 572.346 194.635C571.962 195.598 571.276 196.668 570.288 197.844C569.299 199.011 567.906 200.413 566.107 202.05L562.285 205.795V205.974H573.279V210.5H554.614Z" fill="black"/>
<path d="M1262 207.5C1267.52 207.5 1272 203.023 1272 197.5C1272 191.977 1267.52 187.5 1262 187.5C1256.48 187.5 1252 191.977 1252 197.5C1252 203.023 1256.48 207.5 1262 207.5Z" stroke="black" stroke-width="2" stroke-linecap="round" stroke-linejoin="round"/>
<path d="M1262 191.5V197.5H1257.5" stroke="black" stroke-width="2" stroke-linecap="round" stroke-linejoin="round"/>
<path d="M1290.92 189.955V204.5H1288.72V192.156H1288.63L1285.15 194.429V192.327L1288.78 189.955H1290.92ZM1294.55 201.659V199.884L1300.83 189.955H1302.23V192.568H1301.34L1296.85 199.685V199.798H1305.46V201.659H1294.55ZM1301.44 204.5V201.119L1301.46 200.31V189.955H1303.54V204.5H1301.44ZM1317.34 204.713C1316.46 204.713 1315.68 204.488 1314.99 204.038C1314.3 203.584 1313.76 202.937 1313.37 202.099C1312.98 201.257 1312.78 200.246 1312.78 199.067C1312.78 197.888 1312.98 196.879 1313.37 196.041C1313.77 195.203 1314.32 194.562 1315.01 194.116C1315.7 193.671 1316.48 193.449 1317.36 193.449C1318.03 193.449 1318.58 193.562 1318.99 193.79C1319.41 194.012 1319.73 194.273 1319.96 194.571C1320.19 194.869 1320.37 195.132 1320.5 195.359H1320.62V189.955H1322.75V204.5H1320.67V202.803H1320.5C1320.37 203.035 1320.18 203.3 1319.94 203.598C1319.71 203.896 1319.38 204.157 1318.96 204.379C1318.55 204.602 1318.01 204.713 1317.34 204.713ZM1317.81 202.902C1318.42 202.902 1318.94 202.741 1319.36 202.419C1319.79 202.092 1320.11 201.64 1320.33 201.062C1320.55 200.485 1320.66 199.812 1320.66 199.045C1320.66 198.288 1320.55 197.625 1320.33 197.057C1320.12 196.489 1319.8 196.046 1319.37 195.729C1318.95 195.411 1318.43 195.253 1317.81 195.253C1317.17 195.253 1316.64 195.419 1316.21 195.75C1315.79 196.081 1315.47 196.534 1315.25 197.107C1315.04 197.679 1314.93 198.326 1314.93 199.045C1314.93 199.775 1315.04 200.43 1315.26 201.013C1315.47 201.595 1315.8 202.057 1316.22 202.398C1316.65 202.734 1317.18 202.902 1317.81 202.902ZM1328.95 204.741C1328.26 204.741 1327.64 204.614 1327.08 204.358C1326.52 204.098 1326.08 203.721 1325.75 203.229C1325.43 202.736 1325.27 202.133 1325.27 201.418C1325.27 200.802 1325.39 200.295 1325.62 199.898C1325.86 199.5 1326.18 199.185 1326.58 198.953C1326.98 198.721 1327.43 198.546 1327.93 198.428C1328.43 198.309 1328.93 198.219 1329.45 198.158C1330.1 198.082 1330.63 198.02 1331.04 197.973C1331.45 197.921 1331.75 197.838 1331.93 197.724C1332.11 197.611 1332.21 197.426 1332.21 197.17V197.121C1332.21 196.5 1332.03 196.02 1331.68 195.679C1331.34 195.338 1330.82 195.168 1330.13 195.168C1329.42 195.168 1328.85 195.326 1328.44 195.643C1328.04 195.956 1327.75 196.304 1327.6 196.688L1325.6 196.233C1325.84 195.57 1326.18 195.035 1326.64 194.628C1327.1 194.216 1327.63 193.918 1328.22 193.733C1328.82 193.544 1329.45 193.449 1330.1 193.449C1330.54 193.449 1331 193.501 1331.49 193.605C1331.98 193.705 1332.44 193.889 1332.87 194.159C1333.3 194.429 1333.65 194.815 1333.93 195.317C1334.2 195.814 1334.34 196.46 1334.34 197.256V204.5H1332.26V203.009H1332.18C1332.04 203.283 1331.83 203.553 1331.56 203.818C1331.29 204.083 1330.93 204.304 1330.5 204.479C1330.07 204.654 1329.56 204.741 1328.95 204.741ZM1329.42 203.037C1330 203.037 1330.5 202.921 1330.92 202.689C1331.34 202.457 1331.66 202.154 1331.88 201.78C1332.1 201.401 1332.21 200.996 1332.21 200.565V199.159C1332.14 199.235 1331.99 199.306 1331.77 199.372C1331.56 199.434 1331.32 199.488 1331.04 199.536C1330.77 199.578 1330.5 199.618 1330.24 199.656C1329.98 199.689 1329.76 199.718 1329.59 199.741C1329.17 199.794 1328.8 199.881 1328.46 200.004C1328.12 200.127 1327.85 200.305 1327.65 200.537C1327.45 200.764 1327.35 201.067 1327.35 201.446C1327.35 201.972 1327.54 202.369 1327.93 202.639C1328.32 202.904 1328.81 203.037 1329.42 203.037ZM1338.12 208.591C1337.8 208.591 1337.51 208.565 1337.25 208.513C1336.99 208.465 1336.8 208.413 1336.67 208.357L1337.18 206.616C1337.57 206.721 1337.91 206.766 1338.22 206.751C1338.52 206.737 1338.79 206.624 1339.02 206.411C1339.26 206.197 1339.46 205.849 1339.64 205.366L1339.91 204.642L1335.92 193.591H1338.19L1340.95 202.057H1341.06L1343.83 193.591H1346.11L1341.61 205.956C1341.4 206.524 1341.14 207.005 1340.82 207.398C1340.49 207.795 1340.11 208.094 1339.67 208.293C1339.22 208.491 1338.7 208.591 1338.12 208.591ZM1356.28 196.254L1354.35 196.595C1354.27 196.349 1354.15 196.115 1353.97 195.892C1353.8 195.67 1353.57 195.487 1353.27 195.345C1352.98 195.203 1352.61 195.132 1352.17 195.132C1351.57 195.132 1351.07 195.267 1350.67 195.537C1350.26 195.802 1350.06 196.145 1350.06 196.567C1350.06 196.931 1350.2 197.225 1350.47 197.447C1350.74 197.67 1351.17 197.852 1351.78 197.994L1353.51 198.392C1354.51 198.624 1355.26 198.982 1355.75 199.464C1356.24 199.947 1356.49 200.575 1356.49 201.347C1356.49 202 1356.3 202.582 1355.92 203.094C1355.55 203.6 1355.03 203.998 1354.35 204.287C1353.69 204.576 1352.91 204.72 1352.03 204.72C1350.81 204.72 1349.81 204.46 1349.04 203.939C1348.27 203.413 1347.8 202.668 1347.62 201.702L1349.67 201.389C1349.8 201.924 1350.06 202.329 1350.46 202.604C1350.86 202.874 1351.38 203.009 1352.02 203.009C1352.71 203.009 1353.27 202.864 1353.69 202.575C1354.1 202.282 1354.31 201.924 1354.31 201.503C1354.31 201.162 1354.18 200.875 1353.93 200.643C1353.68 200.411 1353.29 200.236 1352.77 200.118L1350.92 199.713C1349.9 199.481 1349.15 199.112 1348.66 198.605C1348.18 198.098 1347.94 197.457 1347.94 196.68C1347.94 196.036 1348.12 195.473 1348.48 194.99C1348.84 194.507 1349.34 194.131 1349.97 193.861C1350.61 193.586 1351.33 193.449 1352.15 193.449C1353.33 193.449 1354.26 193.705 1354.94 194.216C1355.61 194.723 1356.06 195.402 1356.28 196.254ZM1366.24 189.955V204.5H1364.12V189.955H1366.24ZM1373.8 204.72C1372.73 204.72 1371.8 204.491 1371.02 204.031C1370.25 203.567 1369.66 202.916 1369.23 202.078C1368.82 201.235 1368.61 200.248 1368.61 199.116C1368.61 197.999 1368.82 197.014 1369.23 196.162C1369.66 195.31 1370.24 194.644 1371 194.166C1371.75 193.688 1372.64 193.449 1373.65 193.449C1374.27 193.449 1374.86 193.551 1375.44 193.754C1376.02 193.958 1376.54 194.277 1377 194.713C1377.46 195.149 1377.82 195.714 1378.08 196.411C1378.35 197.102 1378.48 197.942 1378.48 198.932V199.685H1369.81V198.094H1376.4C1376.4 197.535 1376.29 197.04 1376.06 196.609C1375.83 196.174 1375.51 195.83 1375.1 195.58C1374.69 195.329 1374.22 195.203 1373.67 195.203C1373.07 195.203 1372.55 195.35 1372.1 195.643C1371.66 195.932 1371.32 196.311 1371.08 196.78C1370.84 197.244 1370.73 197.748 1370.73 198.293V199.536C1370.73 200.265 1370.85 200.885 1371.11 201.396C1371.37 201.908 1371.73 202.298 1372.2 202.568C1372.66 202.833 1373.2 202.966 1373.82 202.966C1374.22 202.966 1374.59 202.909 1374.92 202.795C1375.25 202.677 1375.54 202.502 1375.78 202.27C1376.02 202.038 1376.21 201.751 1376.34 201.411L1378.35 201.773C1378.19 202.365 1377.9 202.883 1377.48 203.328C1377.07 203.768 1376.55 204.112 1375.92 204.358C1375.3 204.599 1374.6 204.72 1373.8 204.72ZM1386.03 193.591V195.295H1379.86V193.591H1386.03ZM1381.56 204.5V192.327C1381.56 191.645 1381.7 191.079 1382 190.629C1382.3 190.175 1382.7 189.836 1383.19 189.614C1383.68 189.386 1384.22 189.273 1384.79 189.273C1385.22 189.273 1385.58 189.308 1385.89 189.379C1386.19 189.446 1386.42 189.507 1386.56 189.564L1386.06 191.283C1385.97 191.254 1385.84 191.221 1385.68 191.183C1385.53 191.141 1385.34 191.119 1385.11 191.119C1384.6 191.119 1384.23 191.247 1384.01 191.503C1383.79 191.759 1383.68 192.128 1383.68 192.611V204.5H1381.56ZM1393.31 193.591V195.295H1387.35V193.591H1393.31ZM1388.95 190.977H1391.08V201.297C1391.08 201.709 1391.14 202.019 1391.26 202.227C1391.38 202.431 1391.54 202.571 1391.74 202.646C1391.94 202.717 1392.15 202.753 1392.38 202.753C1392.55 202.753 1392.7 202.741 1392.83 202.717C1392.96 202.694 1393.06 202.675 1393.13 202.661L1393.51 204.415C1393.39 204.462 1393.21 204.509 1392.99 204.557C1392.76 204.609 1392.47 204.637 1392.13 204.642C1391.58 204.652 1391.05 204.552 1390.57 204.344C1390.09 204.135 1389.7 203.813 1389.4 203.378C1389.1 202.942 1388.95 202.395 1388.95 201.737V190.977Z" fill="black"/>
</g>
<g filter="url(#filter3_d_1_2)">
<rect x="337" y="899" width="1073" height="105" fill="#FFFDEC"/>
<rect x="338" y="900" width="1071" height="103" stroke="#444444" stroke-width="2"/>
<path d="M360.333 951.5H397.667" stroke="#454545" stroke-width="2" stroke-linecap="round" stroke-linejoin="round"/>
<path d="M379 932.833V970.167" stroke="#454545" stroke-width="2" stroke-linecap="round" stroke-linejoin="round"/>
<path d="M417.788 964.5H411.857L420.895 938.318H428.028L437.054 964.5H431.122L424.564 944.301H424.359L417.788 964.5ZM417.418 954.209H431.429V958.53H417.418V954.209ZM446.425 964.82C444.933 964.82 443.582 964.436 442.372 963.669C441.17 962.893 440.216 961.756 439.509 960.256C438.81 958.747 438.46 956.898 438.46 954.707C438.46 952.457 438.822 950.587 439.547 949.095C440.271 947.595 441.234 946.474 442.436 945.733C443.646 944.983 444.972 944.608 446.412 944.608C447.511 944.608 448.428 944.795 449.161 945.17C449.902 945.537 450.499 945.997 450.95 946.551C451.411 947.097 451.76 947.634 451.999 948.162H452.165V938.318H457.598V964.5H452.229V961.355H451.999C451.743 961.901 451.381 962.442 450.912 962.979C450.452 963.507 449.851 963.946 449.109 964.295C448.376 964.645 447.482 964.82 446.425 964.82ZM448.151 960.486C449.028 960.486 449.77 960.247 450.375 959.77C450.989 959.284 451.457 958.607 451.781 957.737C452.114 956.868 452.28 955.849 452.28 954.682C452.28 953.514 452.118 952.5 451.794 951.639C451.47 950.778 451.001 950.114 450.388 949.645C449.774 949.176 449.028 948.942 448.151 948.942C447.256 948.942 446.501 949.185 445.888 949.67C445.274 950.156 444.81 950.83 444.494 951.69C444.179 952.551 444.021 953.548 444.021 954.682C444.021 955.824 444.179 956.834 444.494 957.712C444.818 958.581 445.283 959.263 445.888 959.757C446.501 960.243 447.256 960.486 448.151 960.486ZM469.311 964.82C467.82 964.82 466.469 964.436 465.259 963.669C464.057 962.893 463.103 961.756 462.395 960.256C461.696 958.747 461.347 956.898 461.347 954.707C461.347 952.457 461.709 950.587 462.434 949.095C463.158 947.595 464.121 946.474 465.323 945.733C466.533 944.983 467.858 944.608 469.299 944.608C470.398 944.608 471.314 944.795 472.047 945.17C472.789 945.537 473.385 945.997 473.837 946.551C474.297 947.097 474.647 947.634 474.885 948.162H475.051V938.318H480.485V964.5H475.115V961.355H474.885C474.63 961.901 474.267 962.442 473.799 962.979C473.338 963.507 472.738 963.946 471.996 964.295C471.263 964.645 470.368 964.82 469.311 964.82ZM471.037 960.486C471.915 960.486 472.657 960.247 473.262 959.77C473.875 959.284 474.344 958.607 474.668 957.737C475 956.868 475.167 955.849 475.167 954.682C475.167 953.514 475.005 952.5 474.681 951.639C474.357 950.778 473.888 950.114 473.275 949.645C472.661 949.176 471.915 948.942 471.037 948.942C470.142 948.942 469.388 949.185 468.775 949.67C468.161 950.156 467.696 950.83 467.381 951.69C467.066 952.551 466.908 953.548 466.908 954.682C466.908 955.824 467.066 956.834 467.381 957.712C467.705 958.581 468.169 959.263 468.775 959.757C469.388 960.243 470.142 960.486 471.037 960.486ZM503.739 944.864V948.955H491.914V944.864H503.739ZM494.598 940.159H500.044V958.466C500.044 958.969 500.121 959.361 500.275 959.642C500.428 959.915 500.641 960.107 500.914 960.217C501.195 960.328 501.519 960.384 501.885 960.384C502.141 960.384 502.397 960.362 502.652 960.32C502.908 960.268 503.104 960.23 503.24 960.205L504.097 964.257C503.824 964.342 503.441 964.44 502.946 964.551C502.452 964.67 501.851 964.743 501.144 964.768C499.831 964.82 498.681 964.645 497.692 964.244C496.712 963.844 495.949 963.222 495.404 962.378C494.858 961.534 494.59 960.469 494.598 959.182V940.159ZM512.886 964.871C511.633 964.871 510.517 964.653 509.537 964.219C508.556 963.776 507.781 963.124 507.21 962.263C506.647 961.393 506.366 960.311 506.366 959.016C506.366 957.925 506.566 957.009 506.967 956.267C507.368 955.526 507.913 954.929 508.603 954.477C509.294 954.026 510.078 953.685 510.956 953.455C511.842 953.224 512.771 953.062 513.743 952.969C514.885 952.849 515.805 952.739 516.504 952.636C517.203 952.526 517.71 952.364 518.025 952.151C518.341 951.937 518.498 951.622 518.498 951.205V951.128C518.498 950.318 518.243 949.692 517.731 949.249C517.228 948.805 516.512 948.584 515.583 948.584C514.603 948.584 513.824 948.801 513.244 949.236C512.664 949.662 512.281 950.199 512.093 950.847L507.056 950.438C507.312 949.244 507.815 948.213 508.565 947.344C509.315 946.466 510.282 945.793 511.467 945.324C512.66 944.847 514.041 944.608 515.609 944.608C516.7 944.608 517.744 944.736 518.741 944.991C519.747 945.247 520.637 945.643 521.413 946.18C522.197 946.717 522.815 947.408 523.267 948.251C523.718 949.087 523.944 950.088 523.944 951.256V964.5H518.779V961.777H518.626C518.311 962.391 517.889 962.932 517.36 963.401C516.832 963.861 516.197 964.223 515.456 964.487C514.714 964.743 513.858 964.871 512.886 964.871ZM514.446 961.112C515.247 961.112 515.954 960.955 516.568 960.639C517.181 960.315 517.663 959.881 518.012 959.335C518.362 958.79 518.537 958.172 518.537 957.482V955.398C518.366 955.509 518.132 955.611 517.833 955.705C517.544 955.79 517.216 955.871 516.849 955.947C516.483 956.016 516.116 956.08 515.75 956.139C515.383 956.19 515.051 956.237 514.752 956.28C514.113 956.374 513.555 956.523 513.078 956.727C512.6 956.932 512.23 957.209 511.966 957.558C511.701 957.899 511.569 958.325 511.569 958.837C511.569 959.578 511.838 960.145 512.375 960.537C512.92 960.92 513.61 961.112 514.446 961.112ZM544.507 950.463L539.522 950.77C539.436 950.344 539.253 949.96 538.972 949.619C538.691 949.27 538.32 948.993 537.86 948.788C537.408 948.575 536.867 948.469 536.236 948.469C535.392 948.469 534.681 948.648 534.101 949.006C533.522 949.355 533.232 949.824 533.232 950.412C533.232 950.881 533.419 951.277 533.794 951.601C534.169 951.925 534.813 952.185 535.725 952.381L539.279 953.097C541.188 953.489 542.611 954.119 543.549 954.989C544.486 955.858 544.955 957 544.955 958.415C544.955 959.702 544.576 960.831 543.817 961.803C543.067 962.774 542.036 963.533 540.723 964.078C539.419 964.615 537.915 964.884 536.211 964.884C533.611 964.884 531.54 964.342 529.998 963.26C528.463 962.169 527.564 960.686 527.3 958.811L532.657 958.53C532.819 959.322 533.211 959.928 533.833 960.345C534.455 960.754 535.252 960.959 536.223 960.959C537.178 960.959 537.945 960.776 538.525 960.409C539.113 960.034 539.411 959.553 539.419 958.964C539.411 958.47 539.202 958.065 538.793 957.75C538.384 957.426 537.753 957.179 536.901 957.009L533.5 956.331C531.583 955.947 530.155 955.283 529.218 954.337C528.289 953.391 527.824 952.185 527.824 950.719C527.824 949.457 528.165 948.371 528.847 947.459C529.537 946.547 530.505 945.844 531.749 945.349C533.002 944.855 534.468 944.608 536.147 944.608C538.627 944.608 540.578 945.132 542.002 946.18C543.434 947.229 544.269 948.656 544.507 950.463ZM553.319 958.849L553.332 952.317H554.124L560.414 944.864H566.665L558.215 954.733H556.924L553.319 958.849ZM548.384 964.5V938.318H553.83V964.5H548.384ZM560.657 964.5L554.879 955.947L558.509 952.099L567.036 964.5H560.657Z" fill="#454545"/>
</g>
</g>
<defs>
<filter id="filter0_d_1_2" x="0" y="0" width="312" height="1024" filterUnits="userSpaceOnUse" color-interpolation-filters="sRGB">
<feFlood flood-opacity="0" result="BackgroundImageFix"/>
<feColorMatrix in="SourceAlpha" type="matrix" values="0 0 0 0 0 0 0 0 0 0 0 0 0 0 0 0 0 0 127 0" result="hardAlpha"/>
<feOffset dx="8"/>
<feComposite in2="hardAlpha" operator="out"/>
<feColorMatrix type="matrix" values="0 0 0 0 0 0 0 0 0 0 0 0 0 0 0 0 0 0 1 0"/>
<feBlend mode="normal" in2="BackgroundImageFix" result="effect1_dropShadow_1_2"/>
<feBlend mode="normal" in="SourceGraphic" in2="effect1_dropShadow_1_2" result="shape"/>
</filter>
<filter id="filter1_d_1_2" x="337" y="20" width="1081" height="113" filterUnits="userSpaceOnUse" color-interpolation-filters="sRGB">
<feFlood flood-opacity="0" result="BackgroundImageFix"/>
<feColorMatrix in="SourceAlpha" type="matrix" values="0 0 0 0 0 0 0 0 0 0 0 0 0 0 0 0 0 0 127 0" result="hardAlpha"/>
<feOffset dx="8" dy="8"/>
<feComposite in2="hardAlpha" operator="out"/>
<feColorMatrix type="matrix" values="0 0 0 0 0 0 0 0 0 0 0 0 0 0 0 0 0 0 1 0"/>
<feBlend mode="normal" in2="BackgroundImageFix" result="effect1_dropShadow_1_2"/>
<feBlend mode="normal" in="SourceGraphic" in2="effect1_dropShadow_1_2" result="shape"/>
</filter>
<filter id="filter2_d_1_2" x="337" y="145" width="1081" height="113" filterUnits="userSpaceOnUse" color-interpolation-filters="sRGB">
<feFlood flood-opacity="0" result="BackgroundImageFix"/>
<feColorMatrix in="SourceAlpha" type="matrix" values="0 0 0 0 0 0 0 0 0 0 0 0 0 0 0 0 0 0 127 0" result="hardAlpha"/>
<feOffset dx="8" dy="8"/>
<feComposite in2="hardAlpha" operator="out"/>
<feColorMatrix type="matrix" values="0 0 0 0 0 0 0 0 0 0 0 0 0 0 0 0 0 0 1 0"/>
<feBlend mode="normal" in2="BackgroundImageFix" result="effect1_dropShadow_1_2"/>
<feBlend mode="normal" in="SourceGraphic" in2="effect1_dropShadow_1_2" result="shape"/>
</filter>
<filter id="filter3_d_1_2" x="337" y="899" width="1081" height="113" filterUnits="userSpaceOnUse" color-interpolation-filters="sRGB">
<feFlood flood-opacity="0" result="BackgroundImageFix"/>
<feColorMatrix in="SourceAlpha" type="matrix" values="0 0 0 0 0 0 0 0 0 0 0 0 0 0 0 0 0 0 127 0" result="hardAlpha"/>
<feOffset dx="8" dy="8"/>
<feComposite in2="hardAlpha" operator="out"/>
<feColorMatrix type="matrix" values="0 0 0 0 0.266667 0 0 0 0 0.266667 0 0 0 0 0.266667 0 0 0 1 0"/>
<feBlend mode="normal" in2="BackgroundImageFix" result="effect1_dropShadow_1_2"/>
<feBlend mode="normal" in="SourceGraphic" in2="effect1_dropShadow_1_2" result="shape"/>
</filter>
<clipPath id="clip0_1_2">
<rect width="1440" height="1024" fill="white"/>
</clipPath>
</defs>
</svg>
